# AST/ASF file generated using VICON BodyLanguage
# -----------------------------------------------
:version 1.10
:name VICON
:units
  mass 1.0
  length 0.45
  angle deg
:documentation
   .ast/.asf automatically generated from VICON data using
   VICON BodyBuilder and BodyLanguage model FoxedUp or BRILLIANT.MOD
:root
   order TX TY TZ RX RY RZ
   axis XYZ
   position 0 0 0  
   orientation 0 0 0 
:bonedata
  begin
     id 1 
     name lhipjoint
     direction 0.650112 -0.723553 0.232005 
     length 2.45805 
     axis 0 0 0  XYZ
  end
  begin
     id 2 
     name lfemur
     direction 0.34202 -0.939693 0  
     length 7.00073  
     axis 0 0 20  XYZ
    dof rx ry rz
    limits (-160.0 20.0)
           (-70.0 70.0)
           (-60.0 70.0)
  end
  begin
     id 3 
     name ltibia
     direction 0.34202 -0.939693 0   
     length 7.8748   
     axis 0 0 20   XYZ
    dof rx
    limits (-10.0 170.0)
  end
  begin
     id 4 
     name lfoot
     direction 0.0542825 -0.14914 0.987325   
     length 1.75978   
     axis -90 7.62852e-016 20   XYZ
    dof rx rz
    limits (-45.0 90.0)
           (-70.0 20.0)
  end
  begin
     id 5 
     name ltoes
     direction 1.53509e-011 -4.21906e-011 1   
     length 0.893912   
     axis -90 7.62852e-016 20   XYZ
    dof rx
    limits (-90.0 20.0)
  end
  begin
     id 6 
     name rhipjoint
     direction -0.637897 -0.733345 0.235145   
     length 2.42522  
     axis 0 0 0  XYZ 
  end
  begin
     id 7 
     name rfemur
     direction -0.34202 -0.939693 0   
     length 7.02549   
     axis 0 0 -20   XYZ
    dof rx ry rz
    limits (-160.0 20.0)
           (-70.0 70.0)
           (-70.0 60.0)
  end
  begin
     id 8 
     name rtibia
     direction -0.34202 -0.939693 0   
     length 7.71512   
     axis 0 0 -20   XYZ
    dof rx
    limits (-10.0 170.0)
 end
 begin
     id 9 
     name rfoot
     direction -0.0822618 -0.226012 0.970645   
     length 1.90014  
     axis -90 -7.62852e-016 -20   XYZ
    dof rx rz
    limits (-45.0 90.0)
           (-20.0 70.0)
  end
  begin
     id 10 
     name rtoes
     direction -1.53542e-011 -4.21872e-011 1   
     length 0.957341   
     axis -90 -7.62852e-016 -20   XYZ
    dof rx
    limits (-90.0 20.0)
  end
  begin
     id 11 
     name lowerback
     direction -0.0022947 0.999774 -0.0211557   
     length 1.89909   
     axis 0 0 0   XYZ
    dof rx ry rz
    limits (-20.0 45.0)
           (-30.0 30.0)
           (-30.0 30.0)
  end
  begin
     id 12 
     name upperback
     direction 0.0107737 0.998635 0.0511027   
     length 1.8853   
     axis 0 0 0   XYZ
    dof rx ry rz
    limits (-20.0 45.0)
           (-30.0 30.0)
           (-30.0 30.0)
  end
  begin
     id 13 
     name thorax
     direction 0.011824 0.998136 0.0598754   
     length 1.88911   
     axis 0 0 0   XYZ
    dof rx ry rz
    limits (-20.0 45.0)
           (-30.0 30.0)
           (-30.0 30.0)
  end
  begin
     id 14 
     name lowerneck
     direction -0.0685355 0.990319 0.120714   
     length 1.91222   
     axis 0 0 0   XYZ
    dof rx ry rz
    limits (-20.0 45.0)
           (-30.0 30.0)
           (-30.0 30.0)
  end
  begin
     id 15 
     name upperneck
     direction 0.0886204 0.955665 -0.280805   
     length 1.92526   
     axis 0 0 0   XYZ
    dof rx ry rz
    limits (-20.0 45.0)
           (-30.0 30.0)
           (-30.0 30.0)
  end
  begin
     id 16
     name head
     direction 0.0233423 0.993502 -0.111393  
     length 1.96056  
     axis 0 0 0   XYZ
    dof rx ry rz
    limits (-20.0 45.0)
           (-30.0 30.0)
           (-30.0 30.0)
  end
  begin
     id 17 
     name lclavicle
     direction 0.941873 0.32922 0.0670041  
     length 3.31705  
     axis 0 0 0   XYZ
    dof ry rz
    limits (-20.0 10.0)
           (0.0 20.0)
  end
  begin
     id 18 
     name lhumerus
     direction 1 -4.4898e-011 3.38707e-028   
     length 5.29277   
     axis 180 -30 -90   XYZ
    dof rx ry rz
    limits (-60.0 90.0)
           (-90.0 90.0)
           (-90.0 90.0)
  end
  begin
     id 19
     name lradius
     direction 1 -4.48952e-011 1.63213e-028   
     length 2.85226   
     axis 180 -30 -90   XYZ
    dof rx
    limits (-10.0 170.0)
  end
  begin
     id 20
     name lwrist
     direction 1 -4.49001e-011 1.27856e-027   
     length 1.42613   
     axis -1.61767e-015 90 90   XYZ
    dof ry
    limits (-180.0 0.0)
 end
  begin
     id 21 
     name lhand
     direction 1 -4.48976e-011 2.55931e-027   
     length 0.602097   
     axis -1.63363e-015 90 90   XYZ
    dof rx rz
    limits (-90.0 90.0)
           (-45.0 45.0)
  end
  begin
     id 22 
     name lfingers
     direction 1 -4.48986e-011 5.11684e-027   
     length 0.485426   
     axis -3.26723e-015 90 90   XYZ
    dof rx
    limits (0.0 90.0)
  end
  begin
     id 23
     name lthumb
     direction 0.707107 -6.34915e-011 0.707107   
     length 0.696978   
     axis -90 45 -2.25915e-014   XYZ
    dof rx rz
    limits (-45.0 45.0)
           (-45.0 45.0)
  end
  begin
     id 24 
     name rclavicle
     direction -0.939974 0.327078 0.0973096   
     length 3.10337  
     axis 0 0 0   XYZ 
    dof ry rz
    limits (-10.0 20.0)
           (-20.0 0.0)
  end
  begin
     id 25 
     name rhumerus
     direction -1 -4.48975e-011 1.83745e-027  
     length 5.13304   
     axis 180 30 90   XYZ
    dof rx ry rz
    limits (-90.0 60.0)
           (-90.0 90.0)
           (-90.0 90.0)
  end
  begin
     id 26 
     name rradius
     direction -1 -4.48977e-011 7.1775e-029   
     length 2.74305   
     axis 180 30 90   XYZ
    dof rx
    limits (-10.0 170.0)
  end
  begin
     id 27 
     name rwrist
     direction -1 -4.48977e-011 1.27963e-027   
     length 1.37152   
     axis -1.61767e-015 -90 -90   XYZ
    dof ry
    limits (-180.0 0.0)
  end
  begin
     id 28
     name rhand
     direction -1 -4.4888e-011 2.56782e-027   
     length 0.767976   
     axis -1.63363e-015 -90 -90   XYZ
    dof rx rz
    limits (-90.0 90.0)
           (-45.0 45.0)
  end
  begin
     id 29
     name rfingers
     direction -1 -4.48947e-011 5.12384e-027   
     length 0.619162   
     axis -3.26723e-015 -90 -90   XYZ
    dof rx
    limits (0.0 90.0)
  end
  begin
     id 30
     name rthumb
     direction -0.707107 -6.34857e-011 0.707107   
     length 0.888997   
     axis -90 -45 2.25915e-014   XYZ
    dof rx rz
    limits (-45.0 45.0)
           (-45.0 45.0)
  end
:hierarchy
  begin
    root lhipjoint rhipjoint lowerback
    lhipjoint lfemur
    lfemur ltibia
    ltibia lfoot
    lfoot ltoes
    rhipjoint rfemur
    rfemur rtibia
    rtibia rfoot
    rfoot rtoes
    lowerback upperback
    upperback thorax
    thorax lowerneck lclavicle rclavicle
    lowerneck upperneck
    upperneck head
    lclavicle lhumerus
    lhumerus lradius
    lradius lwrist
    lwrist lhand lthumb
    lhand lfingers
    rclavicle rhumerus
    rhumerus rradius
    rradius rwrist
    rwrist rhand rthumb
    rhand rfingers
  end

#!OML:ASF F:\VICON\USERDATA\INSTALL\rory3\rory3.ASF
:FULLY-SPECIFIED
:DEGREES
1
root 0.267665 17.4834 0.607376 6.57105 3.46988 -0.34321
lowerback -2.53705 -0.324379 -1.34017
upperback -3.56653 -0.405337 0.815392
thorax -2.22284 -0.158303 1.5856
lowerneck -8.54821 -12.3934 -19.2503
upperneck 18.793 -18.9037 20.6233
head 11.4967 -8.5123 7.90602
rclavicle 4.25523e-015 -3.18055e-015
rhumerus -39.8409 11.8639 -92.9407
rradius 29.3167
rwrist 9.58073
rhand 1.36685 13.5362
rfingers 7.12502
rthumb 26.8989 -14.5698
lclavicle 4.25523e-015 -3.18055e-015
lhumerus -29.5218 -0.628229 91.8514
lradius 12.2961
lwrist -18.1502
lhand -3.37601 24.9176
lfingers 7.12502
lthumb 22.3531 53.6445
rfemur 0 0 0
rtibia 0
rfoot 0 0
rtoes 0
lfemur -7.29757 -19.8495 -17.0702
ltibia 13.3729
lfoot -12.7132 12.6922
ltoes -18.4905
2
root 0.266943 17.4832 0.609665 6.54186 3.50452 -0.452014
lowerback -2.58714 -0.343153 -1.24719
upperback -3.55298 -0.430181 0.848843
thorax -2.18012 -0.172964 1.56725
lowerneck -8.65023 -12.382 -19.2924
upperneck 18.9586 -18.876 20.553
head 11.5677 -8.49851 7.89329
rclavicle 4.07819e-015 1.41137e-014
rhumerus -39.7046 11.4818 -92.922
rradius 28.8501
rwrist 9.9027
rhand 0.918397 13.5176
rfingers 7.12502
rthumb 26.4697 -14.6538
lclavicle 4.07819e-015 1.41137e-014
lhumerus -29.0181 -0.471892 92.0485
lradius 11.0716
lwrist -18.9592
lhand -4.10776 24.9914
lfingers 7.12502
lthumb 21.6505 53.8009
rfemur 0 0 0
rtibia 0
rfoot 0 0
rtoes 0
lfemur -7.36777 -19.8717 -16.9557
ltibia 13.5479
lfoot -12.7639 12.6777
ltoes -18.3745
3
root 0.264529 17.4833 0.611212 6.52154 3.52057 -0.440691
lowerback -2.6238 -0.35994 -1.33481
upperback -3.54086 -0.450959 0.872253
thorax -2.14568 -0.181337 1.64001
lowerneck -8.72578 -12.3944 -19.3132
upperneck 19.0436 -18.8642 20.4438
head 11.5994 -8.49638 7.85491
rclavicle -2.81715e-015 -3.97569e-016
rhumerus -39.5913 11.1434 -92.9211
rradius 28.3556
rwrist 10.414
rhand 0.466818 13.5059
rfingers 7.12502
rthumb 26.0374 -14.7299
lclavicle -2.81715e-015 -3.97569e-016
lhumerus -28.5754 -0.338794 92.2322
lradius 10.0264
lwrist -19.7089
lhand -4.63466 25.0372
lfingers 7.12502
lthumb 21.1444 53.9041
rfemur 0 0 0
rtibia 0
rfoot 0 0
rtoes 0
lfemur -7.37037 -19.8884 -16.9603
ltibia 13.5855
lfoot -12.7437 12.712
ltoes -18.7704
4
root 0.263428 17.4838 0.613066 6.50673 3.51924 -0.402149
lowerback -2.63171 -0.392248 -1.40414
upperback -3.5567 -0.493485 0.860263
thorax -2.15561 -0.200939 1.66629
lowerneck -8.76329 -12.3601 -19.2663
upperneck 19.104 -18.7958 20.331
head 11.5923 -8.46741 7.81732
rclavicle -5.39514e-015 -1.43125e-014
rhumerus -39.548 10.952 -93.0686
rradius 27.8894
rwrist 10.8823
rhand -0.120697 13.4761
rfingers 7.12502
rthumb 25.4748 -14.8412
lclavicle -5.39514e-015 -1.43125e-014
lhumerus -28.4084 -0.200326 92.3013
lradius 9.5293
lwrist -20.3919
lhand -4.64106 24.9814
lfingers 7.12502
lthumb 21.1383 53.8491
rfemur 0 0 0
rtibia 0
rfoot 0 0
rtoes 0
lfemur -7.35586 -19.8922 -17.0039
ltibia 13.6074
lfoot -12.7421 12.7158
ltoes -18.8235
5
root 0.263933 17.4826 0.613383 6.45609 3.53425 -0.442732
lowerback -2.58073 -0.403548 -1.33476
upperback -3.56887 -0.510028 0.848386
thorax -2.19663 -0.210587 1.6155
lowerneck -8.75692 -12.3403 -19.2672
upperneck 19.126 -18.7601 20.2889
head 11.585 -8.45488 7.80954
rclavicle -2.50344e-015 -8.34896e-015
rhumerus -39.4514 10.5418 -93.1208
rradius 27.3491
rwrist 11.6121
rhand -0.806445 13.5247
rfingers 7.12502
rthumb 24.8177 -14.8848
lclavicle -2.50344e-015 -8.34896e-015
lhumerus -28.3592 -0.136578 92.3528
lradius 9.29583
lwrist -20.95
lhand -4.53481 24.9818
lfingers 7.12502
lthumb 21.2403 53.8381
rfemur 0 0 0
rtibia 0
rfoot 0 0
rtoes 0
lfemur -7.25048 -19.9046 -16.9777
ltibia 13.5177
lfoot -12.7109 12.6771
ltoes -18.4874
6
root 0.263132 17.4827 0.615007 6.40328 3.54292 -0.363907
lowerback -2.53473 -0.417374 -1.4162
upperback -3.58027 -0.528831 0.8142
thorax -2.2332 -0.218094 1.62637
lowerneck -8.78072 -12.3253 -19.3185
upperneck 19.2111 -18.7396 20.28
head 11.6214 -8.44735 7.82176
rclavicle 5.55976e-015 -7.85199e-015
rhumerus -39.3721 9.99887 -93.0876
rradius 26.8714
rwrist 12.4775
rhand -1.3969 13.5386
rfingers 7.12502
rthumb 24.2517 -14.9477
lclavicle 5.55976e-015 -7.85199e-015
lhumerus -28.3945 -0.0989956 92.3757
lradius 9.26699
lwrist -21.5704
lhand -4.29641 25.1309
lfingers 7.12502
lthumb 21.4693 53.9612
rfemur 0 0 0
rtibia 0
rfoot 0 0
rtoes 0
lfemur -7.11748 -19.926 -17.085
ltibia 13.4153
lfoot -12.7113 12.6917
ltoes -18.3223
7
root 0.263203 17.4826 0.615951 6.38629 3.57507 -0.218521
lowerback -2.52735 -0.452945 -1.56655
upperback -3.58692 -0.575712 0.775748
thorax -2.24162 -0.238306 1.67102
lowerneck -8.77067 -12.2847 -19.3536
upperneck 19.1998 -18.6711 20.2753
head 11.6018 -8.42045 7.84049
rclavicle -2.00959e-015 -1.98785e-015
rhumerus -39.3203 9.62519 -93.1107
rradius 26.5106
rwrist 13.1184
rhand -2.01048 13.4305
rfingers 7.12502
rthumb 23.6633 -15.1331
lclavicle -2.00959e-015 -1.98785e-015
lhumerus -28.4705 -0.0298457 92.3924
lradius 9.38282
lwrist -22.2371
lhand -3.97943 24.9807
lfingers 7.12502
lthumb 21.7737 53.7759
rfemur 0 0 0
rtibia 0
rfoot 0 0
rtoes 0
lfemur -7.04781 -19.9776 -17.252
ltibia 13.3415
lfoot -12.6778 12.7245
ltoes -18.3235
8
root 0.261514 17.4809 0.61706 6.39515 3.61917 -0.180027
lowerback -2.57706 -0.464898 -1.63197
upperback -3.57591 -0.590464 0.764956
thorax -2.20139 -0.244729 1.69602
lowerneck -8.80593 -12.2865 -19.3546
upperneck 19.1708 -18.645 20.217
head 11.5839 -8.41126 7.81916
rclavicle 9.31803e-018 1.03368e-014
rhumerus -39.1748 8.90586 -92.9414
rradius 26.1273
rwrist 14.082
rhand -2.35073 13.4043
rfingers 7.12502
rthumb 23.337 -15.2011
lclavicle 9.31803e-018 1.03368e-014
lhumerus -28.5308 -0.0417425 92.4145
lradius 9.57042
lwrist -22.9834
lhand -3.54666 24.7484
lfingers 7.12502
lthumb 22.1892 53.4949
rfemur 0 0 0
rtibia 0
rfoot 0 0
rtoes 0
lfemur -7.01968 -20.025 -17.2812
ltibia 13.2629
lfoot -12.67 12.7068
ltoes -18.356
9
root 0.258331 17.48 0.617997 6.40884 3.63632 -0.202921
lowerback -2.61344 -0.477767 -1.65947
upperback -3.57656 -0.606529 0.782707
thorax -2.18062 -0.252067 1.72926
lowerneck -8.87396 -12.2987 -19.3797
upperneck 19.173 -18.6285 20.1496
head 11.5883 -8.40622 7.79587
rclavicle -1.77788e-014 1.18277e-014
rhumerus -39.0395 8.13265 -92.695
rradius 25.8454
rwrist 14.928
rhand -2.32426 13.3496
rfingers 7.12502
rthumb 23.3624 -15.2525
lclavicle -1.77788e-014 1.18277e-014
lhumerus -28.6678 -0.0126651 92.4325
lradius 9.93394
lwrist -23.7453
lhand -3.07839 24.5502
lfingers 7.12502
lthumb 22.6387 53.2425
rfemur 0 0 0
rtibia 0
rfoot 0 0
rtoes 0
lfemur -7.03747 -20.0374 -17.2411
ltibia 13.2616
lfoot -12.6441 12.7147
ltoes -18.5734
10
root 0.25717 17.48 0.618019 6.44276 3.62569 -0.235739
lowerback -2.6499 -0.491546 -1.65566
upperback -3.59611 -0.624246 0.795838
thorax -2.17952 -0.260699 1.74027
lowerneck -8.8839 -12.2776 -19.393
upperneck 19.1502 -18.5831 20.1295
head 11.5695 -8.38808 7.79809
rclavicle 6.59717e-015 2.78299e-015
rhumerus -38.925 7.23316 -92.3455
rradius 25.6663
rwrist 15.7473
rhand -2.04608 13.3852
rfingers 7.12502
rthumb 23.6292 -15.1828
lclavicle 6.59717e-015 2.78299e-015
lhumerus -28.8882 0.0165367 92.3801
lradius 10.4436
lwrist -24.4407
lhand -2.39639 24.3191
lfingers 7.12502
lthumb 23.2932 52.9301
rfemur 0 0 0
rtibia 0
rfoot 0 0
rtoes 0
lfemur -7.11189 -20.0205 -17.1891
ltibia 13.3286
lfoot -12.6621 12.7447
ltoes -18.7146
